<svg width="30" height="22" viewBox="0 0 30 22" fill="none" xmlns="http://www.w3.org/2000/svg">
<path d="M30 5.33331V1.43439C30 0.642151 29.3578 0 28.5656 0H1.43439C0.642212 0 0 0.642151 0 1.43439V5.33331H30Z" fill="#EF9C4B"/>
<path d="M0 9.33331V20.5655C0 21.3577 0.642212 22 1.43439 22H28.5656C29.3578 22 30 21.3577 30 20.5655V9.33331H0ZM7.41211 18.793H4C3.44775 18.793 3 18.3452 3 17.793C3 17.2407 3.44775 16.793 4 16.793H7.41211C7.96436 16.793 8.41211 17.2407 8.41211 17.793C8.41211 18.3452 7.96436 18.793 7.41211 18.793ZM10.8237 15.043H4C3.44775 15.043 3 14.5952 3 14.043C3 13.4907 3.44775 13.043 4 13.043H10.8237C11.376 13.043 11.8237 13.4907 11.8237 14.043C11.8237 14.5952 11.376 15.043 10.8237 15.043Z" fill="#EF9C4B"/>
</svg>
